<?xml version="1.0" encoding="utf-8"?>
<!-- Generator: Adobe Illustrator 28.2.0, SVG Export Plug-In . SVG Version: 6.00 Build 0)  -->
<svg version="1.1" id="Layer_1" xmlns="http://www.w3.org/2000/svg" xmlns:xlink="http://www.w3.org/1999/xlink" x="0px" y="0px"
	 viewBox="0 0 652 595.3" style="enable-background:new 0 0 652 595.3;" xml:space="preserve">
<style type="text/css">
	.st0{fill:#4DAFFF;}
	.st1{fill:#0C2D78;}
	.st2{fill:#EC7000;}
</style>
<path class="st0" d="M348.5,93.3c0.3,0,53.2-0.4,84.1,5.5c22.6,3.3,35.2,15.6,40.8,35.1c10.9,34,20.9,88.8,25.3,147.4
	c0.1,1.7,0.3,3.9,0.4,5.6h81.2c-0.6-78.6-8.7-152.8-19.8-199.5c-5.8-27.8-22-46.4-53.4-53.4c-33.7-8.4-79-14.4-129-17.4
	c-0.2,0-15.7-0.8-16-0.8L348.5,93.3z"/>
<path class="st1" d="M98.1,316.8L98.1,316.8c-0.2-1.9-0.3-3.7-0.4-5.6c-4.4-58.5-2.8-114.1,2.9-149.4c2.6-20.1,13.2-34.1,35.1-40.8
	c35.6-11.8,88.9-20.8,147.4-25.2c12.2-0.9,24.2-1.6,35.6-2.1l13.8-79.2c-11.2-0.3-22.6-0.5-34.4-0.5c-82.4,0-157.8,7-208.9,19.7
	c-31.3,7-47.6,25.5-53.4,53.4C24.2,136,16.1,213.8,16.1,296.2c0,11.7,0.5,34.8,0.5,34.8c0-0.2,0,0,0,0L98.1,316.8z"/>
<path class="st2" d="M269.3,498.7c-41,1.2-78.3-0.4-105.7-5.1c-22.6-3.3-35.2-15.6-40.8-35.1c-10.1-32.5-17.3-71.5-21.7-112.5
	L18,360.6c2.3,51.8,10.1,111.7,17.9,144.5c5.8,27.8,22,46.4,53.4,53.4c44.9,11.2,109.3,18,180.1,19.4L269.3,498.7L269.3,498.7z"/>
<g>
	<path class="st1" d="M329.9,578.2l0.1-108.6l-31.8,0l-0.1,108.6L329.9,578.2z M357.5,494.6l0,46.5c0,26.4,13.8,39.6,38.3,39.6
		c8.8,0,16.1-1,19.7-2.1l0-24.3c-2.3,0.6-6.5,1.2-11.3,1.2c-10.2,0-14.9-5-14.8-16.5l0-44.4l27.6,0l0-24.7l-27.6,0l0-32.9l-31.8,5.6
		l0,27.2l-15.9,0l0,24.7L357.5,494.6z M464.6,581c12.8,0,22-5.2,28.5-14l0.4,11.3l29.7,0l0-63.8c0-31-17.3-47.5-48.3-47.5
		c-15.9,0-29.1,2.5-41.9,7.3l0,25.5c12.6-4.8,25.1-7.7,36.8-7.7c14.6,0,22.8,6.7,22.8,18.4c-2.5-0.2-6.7-0.4-10.7-0.4
		c-33.5,0-54.6,13.8-54.6,37.4C427.4,568,441.8,581,464.6,581z M485,529.8c2.5,0,6.5,0.2,8,0.4l0,8.6c0,11.5-7.8,19.5-18.9,19.4
		c-9.8,0-15.9-4.4-15.9-13.2C458.2,535,467.8,529.8,485,529.8z M575.5,581.1c13.2,0,22.2-4.8,29.3-14.4l0.4,11.7l30.5,0l0.1-108.6
		l-31.8,0l0,64c0,13.2-6.5,21.5-17.2,21.5c-10.5,0-16.1-7.1-16.1-20.3l0-65.3l-31.8,0l0,70.5C538.9,565.2,553.2,581.1,575.5,581.1z
		 M615.6,455.2l0-27.6l-52.9,9.4l0,18.2L615.6,455.2z"/>
	<g>
		<g>
			<path class="st1" d="M314.1,458.4c11.1,0,18.8-7.5,18.9-18.2c0-10.9-7.7-18.2-18.8-18.2s-18.8,7.5-18.8,18.2
				C295.3,451,303,458.4,314.1,458.4z"/>
		</g>
	</g>
</g>
<g>
	<path class="st1" d="M300.1,339.5c-7.4,0-12.5,2.7-16.5,8l-0.2-6.5l-17.1,0l0,60.5l17.9,0l0-35.6c0-7.3,3.6-12,9.6-12
		c5.9,0,9,4,9,11.3l0,36.4l17.9,0l0-39.3C320.6,348.4,312.6,339.5,300.1,339.5z"/>
	<path class="st1" d="M220.4,403.1c7.4,0,12.4-2.7,16.4-8l0.2,6.5l17.1,0l0.1-60.5l-17.9,0l0,35.6c0,7.3-3.6,12-9.6,12
		c-5.9,0-9-4-9-11.3l0-36.4l-17.9,0l0,39.3C199.9,394.3,207.8,403.1,220.4,403.1z"/>
	<path class="st1" d="M160.3,401.6h-17.9v-78.2h50.4v15.1h-32.5v18.1H187v15.1h-26.6V401.6z"/>
	<path class="st1" d="M355.7,403.1c-5,0-9.4-1.3-13.1-3.8c-3.8-2.5-6.7-6.2-8.8-10.9c-2.1-4.7-3.1-10.3-3.1-16.8
		c0-6.6,1-12.2,3.2-17c2.1-4.8,5.1-8.4,8.9-11.1s8.2-3.9,13.2-3.9c6.5,0,11.8,2.3,15.7,6.8v-28.3h17.8v83.4h-16.2l-0.2-7.3
		c-1.7,2.8-4.1,4.9-7.1,6.5C362.8,402.4,359.4,403.1,355.7,403.1z M360.3,388.9c3.7,0,6.5-1.5,8.6-4.6c2.1-3,3.1-7.3,3.1-12.8
		c0-5.6-1-9.9-3.1-13c-2.1-3.1-4.9-4.6-8.6-4.6s-6.5,1.5-8.6,4.6s-3.1,7.3-3.1,12.8c0,5.6,1,9.9,3.1,13
		C353.8,387.3,356.7,388.9,360.3,388.9z"/>
	<path class="st1" d="M490.6,403.1c-6.3,0-11.8-1.3-16.4-3.8c-4.6-2.5-8.2-6.2-10.7-11s-3.8-10.4-3.8-16.9c0-6.3,1.3-11.9,4-16.7
		s6.3-8.5,11-11.2c4.7-2.7,10.2-4,16.4-4c2.8,0,5.5,0.4,8.2,1c2.6,0.7,4.8,1.6,6.3,2.7v14.2c-3.4-2.5-7.4-3.7-12.3-3.7
		c-4.9,0-8.7,1.5-11.5,4.6c-2.8,3-4.1,7.3-4.1,12.8c0,5.4,1.4,9.7,4.3,12.9c2.8,3.2,6.7,4.8,11.5,4.8c5.2,0,9.5-1.3,12.9-3.9v14.1
		c-1.7,1.2-4,2.2-6.8,3C496.8,402.8,493.8,403.1,490.6,403.1z M483.2,400.5h9.8l-2.2,7.6c3.7,0.3,6.6,1.5,8.8,3.6
		c2.2,2.1,3.3,4.6,3.3,7.6c0,4.1-1.6,7.3-4.7,9.6c-3.1,2.3-7.6,3.4-13.4,3.4c-2.3,0-4.9-0.4-7.6-1v-8.8c1.1,0.3,2.2,0.5,3.3,0.6
		c1.1,0.1,2,0.2,2.8,0.2c4.5,0,6.8-1.4,6.8-4.3c0-2.6-2.4-3.9-7.1-3.9h-3.6L483.2,400.5z"/>
	<path class="st1" d="M551.5,333.8c-2.4,0-4.5-0.5-6.4-1.6s-3.5-2.1-5-3.1s-2.8-1.6-4.1-1.6c-2.2,0-3.3,1.7-3.3,5.1v0.9H522v-0.9
		c0-5.4,1.1-9.5,3.3-12.3s5.3-4.2,9.5-4.2c2.4,0,4.6,0.5,6.4,1.6s3.5,2.1,5,3.1c1.4,1,2.8,1.6,4,1.6c2.2,0,3.3-1.7,3.3-5.1v-0.9
		h10.9v0.9c0,5.4-1.1,9.5-3.3,12.3C558.8,332.4,555.7,333.8,551.5,333.8z"/>
	<path class="st1" d="M606,403.1c-6,0-11.2-1.3-15.7-3.9s-7.9-6.3-10.3-11s-3.7-10.3-3.7-16.7s1.2-12,3.7-16.8
		c2.5-4.8,5.9-8.5,10.4-11.1c4.5-2.6,9.7-3.9,15.6-3.9c6,0,11.2,1.3,15.7,3.9s7.9,6.3,10.3,11s3.7,10.3,3.7,16.7s-1.2,12-3.7,16.8
		c-2.5,4.8-5.9,8.5-10.3,11.1C617.2,401.8,612,403.1,606,403.1z M606,388.9c3.7,0,6.5-1.5,8.6-4.6c2.1-3,3.1-7.3,3.1-12.8
		c0-5.6-1-9.9-3.1-13c-2.1-3.1-4.9-4.6-8.6-4.6c-3.7,0-6.5,1.5-8.6,4.6s-3.1,7.3-3.1,12.8c0,5.6,1,9.9,3.1,13
		C599.4,387.3,602.3,388.9,606,388.9z"/>
	<path class="st1" d="M540.3,339.6c-8.9,0-16.3,1.4-23.5,4.1l0,14.2c7-2.7,14.1-4.3,20.7-4.3c8.2,0,12.8,3.7,12.8,10.3
		c-1.4-0.1-3.8-0.2-6-0.2c-18.8,0-30.7,7.7-30.7,20.8c0,11.4,8.1,18.6,20.9,18.7c7.2,0,12.3-2.9,16-7.8l0.2,6.3l16.7,0l0-35.5
		C567.4,348.9,557.7,339.6,540.3,339.6z M550.4,379.6c0,6.4-4.4,10.8-10.6,10.8c-5.5,0-8.9-2.5-8.9-7.4c0-5.6,5.4-8.5,15-8.5
		c1.4,0,3.6,0.1,4.5,0.2L550.4,379.6z"/>
	<path class="st1" d="M423.8,339.6c-8.9,0-16.3,1.4-23.5,4.1l0,14.2c7-2.7,14.1-4.3,20.7-4.3c8.2,0,12.8,3.7,12.8,10.3
		c-1.4-0.1-3.8-0.2-6-0.2c-18.8,0-30.7,7.7-30.7,20.8c0,11.4,8.1,18.6,20.9,18.7c7.2,0,12.3-2.9,16-7.8l0.2,6.3l16.7,0l0-35.5
		C450.9,348.9,441.2,339.6,423.8,339.6z M433.9,379.6c0,6.4-4.4,10.8-10.6,10.8c-5.5,0-8.9-2.5-8.9-7.4c0-5.6,5.4-8.5,15-8.5
		c1.4,0,3.6,0.1,4.5,0.2L433.9,379.6z"/>
</g>
</svg>
